<svg width="389" height="451" viewBox="0 0 389 451" fill="none" xmlns="http://www.w3.org/2000/svg">
<path d="M388.48 44.0801C388.48 41.9701 388.55 39.8101 388.17 37.7401C383.98 14.7801 366.92 0.600148 343.58 0.600148C266.55 0.590148 189.52 0.600148 112.49 0.600148C107.4 0.600148 107.4 0.600141 107.4 5.53014V225.39C107.4 298.92 107.42 372.46 107.33 445.99C107.33 449.15 107.94 450.24 111.39 450.24C189.3 450.13 267.2 450.18 345.11 450.14C369.5 450.12 388.49 431.01 388.49 406.64C388.5 285.79 388.49 164.94 388.48 44.0801ZM326.1 166.17C324.51 171.08 319.4 174.28 313.02 174.29C290.05 174.3 267.09 174.29 244.12 174.29C221.16 174.29 198.2 174.31 175.23 174.28C169.78 174.27 165.13 172.64 162.68 167.26C159.05 159.31 164.34 150.79 173.08 150.45C173.33 150.44 173.58 150.45 173.83 150.45C220.75 150.45 267.68 150.43 314.61 150.47C323.05 150.48 328.66 158.28 326.1 166.17ZM313.98 110.9C290.64 110.64 267.3 110.8 243.97 110.8C220.38 110.79 196.79 110.82 173.21 110.78C167.42 110.77 162.69 106.71 161.58 101.06C160.6 96.0901 163.73 90.5701 168.72 88.3101C170.38 87.5501 172.09 87.4601 173.84 87.4601C220.64 87.4601 267.43 87.4401 314.23 87.4701C321.42 87.4701 327.01 92.5201 326.73 99.0901C326.4 106.88 320.33 110.98 313.98 110.9Z" fill="white"/>
<path d="M83.5297 444.85C83.5297 450.9 84.2297 450.12 78.0697 450.14C66.9597 450.18 55.8497 450.16 44.7397 450.15C21.7297 450.14 4.08972 435.2 0.469721 412.61C0.169721 410.78 0.259729 408.88 0.259729 407C0.249729 285.91 0.249729 164.82 0.259729 43.7199C0.259729 19.8799 19.3297 0.75988 43.2697 0.60988C55.1297 0.53988 66.9897 0.739905 78.8397 0.509905C82.5197 0.439905 83.6497 1.24991 83.6397 5.16991C83.5097 78.6999 83.5397 152.23 83.5397 225.76C83.5397 298.79 83.5497 371.82 83.5297 444.85Z" fill="white"/>
</svg>
