<?xml version="1.0" encoding="UTF-8"?>
<!DOCTYPE svg PUBLIC "-//W3C//DTD SVG 1.1//EN" "http://www.w3.org/Graphics/SVG/1.1/DTD/svg11.dtd">
<svg xmlns="http://www.w3.org/2000/svg" version="1.1" width="1200px" height="1200px" style="shape-rendering:geometricPrecision; text-rendering:geometricPrecision; image-rendering:optimizeQuality; fill-rule:evenodd; clip-rule:evenodd" xmlns:xlink="http://www.w3.org/1999/xlink">
<g><path style="opacity:0.972" fill="#fefffe" d="M 447.5,298.5 C 457.446,297.89 464.946,301.89 470,310.5C 471.104,318.941 471.604,327.441 471.5,336C 471.492,343.41 471.159,350.743 470.5,358C 553.166,358.5 635.833,358.667 718.5,358.5C 718.045,342.096 718.545,325.763 720,309.5C 725.495,299.665 733.662,296.498 744.5,300C 750.21,303.373 754.043,308.207 756,314.5C 756.823,329.075 756.656,343.575 755.5,358C 798.038,352.071 833.872,364.571 863,395.5C 876.607,411.3 884.607,429.633 887,450.5C 887.667,569.5 887.667,688.5 887,807.5C 882.24,839.916 866.407,865.416 839.5,884C 825.438,892.91 810.105,898.243 793.5,900C 664.167,900.667 534.833,900.667 405.5,900C 354.018,891.518 323.185,861.685 313,810.5C 312.333,689.5 312.333,568.5 313,447.5C 323.518,397.315 354.018,367.815 404.5,359C 414.161,358.5 423.828,358.334 433.5,358.5C 433.333,343.163 433.5,327.83 434,312.5C 436.017,305.318 440.517,300.652 447.5,298.5 Z M 756.5,382.5 C 765.694,387.866 771.194,395.866 773,406.5C 774.977,430.72 764.144,445.553 740.5,451C 715.127,451.634 700.794,439.3 697.5,414C 698.333,398.821 705.166,387.321 718,379.5C 718.048,394.568 718.715,409.568 720,424.5C 727.459,435.158 736.959,437.324 748.5,431C 751.433,428.736 753.6,425.902 755,422.5C 756.425,409.227 756.925,395.894 756.5,382.5 Z M 471.5,381.5 C 483.407,388.618 489.74,399.284 490.5,413.5C 485.953,441.553 469.619,453.719 441.5,450C 420.772,442.393 411.939,427.56 415,405.5C 417.386,394.718 423.22,386.385 432.5,380.5C 433.049,395.223 433.882,409.889 435,424.5C 442.459,435.158 451.959,437.324 463.5,431C 466.433,428.736 468.6,425.902 470,422.5C 471.427,408.893 471.927,395.226 471.5,381.5 Z M 349.5,521.5 C 515.999,520.5 682.666,520.167 849.5,520.5C 849.667,615.501 849.5,710.501 849,805.5C 842.23,837.476 822.73,856.309 790.5,862C 663.167,862.667 535.833,862.667 408.5,862C 376.387,856.22 357.221,837.387 351,805.5C 350.833,710.666 350.333,615.999 349.5,521.5 Z"/></g>
<g><path style="opacity:0.941" fill="#fefffe" d="M 418.5,558.5 C 436.503,558.333 454.503,558.5 472.5,559C 475.674,560.174 477.841,562.341 479,565.5C 479.667,583.167 479.667,600.833 479,618.5C 477.841,621.659 475.674,623.826 472.5,625C 454.5,625.667 436.5,625.667 418.5,625C 416.671,624.727 415.171,623.893 414,622.5C 412.358,602.923 412.025,583.256 413,563.5C 414.352,561.251 416.185,559.584 418.5,558.5 Z"/></g>
<g><path style="opacity:0.945" fill="#fefffe" d="M 521.5,558.5 C 539.503,558.333 557.503,558.5 575.5,559C 578.945,560.388 581.111,562.888 582,566.5C 582.667,583.833 582.667,601.167 582,618.5C 580.841,621.659 578.674,623.826 575.5,625C 557.5,625.667 539.5,625.667 521.5,625C 519.919,624.293 518.419,623.46 517,622.5C 515.358,602.923 515.025,583.256 516,563.5C 517.352,561.251 519.185,559.584 521.5,558.5 Z"/></g>
<g><path style="opacity:0.945" fill="#fefffe" d="M 624.5,558.5 C 642.503,558.333 660.503,558.5 678.5,559C 681.945,560.388 684.111,562.888 685,566.5C 685.667,583.833 685.667,601.167 685,618.5C 684.193,621.973 682.027,624.14 678.5,625C 660.5,625.667 642.5,625.667 624.5,625C 622.919,624.293 621.419,623.46 620,622.5C 618.358,602.923 618.025,583.256 619,563.5C 620.352,561.251 622.185,559.584 624.5,558.5 Z"/></g>
<g><path style="opacity:0.944" fill="#fefffe" d="M 727.5,558.5 C 745.503,558.333 763.503,558.5 781.5,559C 785.105,560.27 787.271,562.77 788,566.5C 788.667,583.833 788.667,601.167 788,618.5C 787.193,621.973 785.027,624.14 781.5,625C 763.5,625.667 745.5,625.667 727.5,625C 725.919,624.293 724.419,623.46 723,622.5C 721.358,602.923 721.025,583.256 722,563.5C 723.352,561.251 725.185,559.584 727.5,558.5 Z"/></g>
<g><path style="opacity:0.938" fill="#fefffe" d="M 418.5,661.5 C 436.503,661.333 454.503,661.5 472.5,662C 475.674,663.174 477.841,665.341 479,668.5C 479.667,686.167 479.667,703.833 479,721.5C 477.841,724.659 475.674,726.826 472.5,728C 454.5,728.667 436.5,728.667 418.5,728C 416.919,727.293 415.419,726.46 414,725.5C 412.358,705.923 412.025,686.256 413,666.5C 414.352,664.251 416.185,662.584 418.5,661.5 Z"/></g>
<g><path style="opacity:0.941" fill="#fefffe" d="M 521.5,661.5 C 539.503,661.333 557.503,661.5 575.5,662C 579.105,663.27 581.271,665.77 582,669.5C 582.667,686.5 582.667,703.5 582,720.5C 581.648,724.521 579.482,727.021 575.5,728C 557.5,728.667 539.5,728.667 521.5,728C 519.671,727.727 518.171,726.893 517,725.5C 515.358,705.923 515.025,686.256 516,666.5C 517.107,663.887 518.94,662.22 521.5,661.5 Z"/></g>
<g><path style="opacity:0.941" fill="#fefffe" d="M 624.5,661.5 C 642.503,661.333 660.503,661.5 678.5,662C 682.105,663.27 684.271,665.77 685,669.5C 685.667,686.833 685.667,704.167 685,721.5C 683.535,724.299 681.368,726.465 678.5,728C 660.5,728.667 642.5,728.667 624.5,728C 622.671,727.727 621.171,726.893 620,725.5C 618.358,705.923 618.025,686.256 619,666.5C 620.107,663.887 621.94,662.22 624.5,661.5 Z"/></g>
<g><path style="opacity:0.941" fill="#fefffe" d="M 727.5,661.5 C 745.503,661.333 763.503,661.5 781.5,662C 784.674,663.174 786.841,665.341 788,668.5C 788.667,686.167 788.667,703.833 788,721.5C 786.535,724.299 784.368,726.465 781.5,728C 763.5,728.667 745.5,728.667 727.5,728C 725.671,727.727 724.171,726.893 723,725.5C 721.358,705.923 721.025,686.256 722,666.5C 723.107,663.887 724.94,662.22 727.5,661.5 Z"/></g>
<g><path style="opacity:0.942" fill="#fefffe" d="M 418.5,764.5 C 436.503,764.333 454.503,764.5 472.5,765C 475.674,766.174 477.841,768.341 479,771.5C 479.667,789.167 479.667,806.833 479,824.5C 477.841,827.659 475.674,829.826 472.5,831C 454.5,831.667 436.5,831.667 418.5,831C 416.919,830.293 415.419,829.46 414,828.5C 412.358,808.923 412.025,789.256 413,769.5C 414.352,767.251 416.185,765.584 418.5,764.5 Z"/></g>
<g><path style="opacity:0.944" fill="#fefffe" d="M 521.5,764.5 C 539.503,764.333 557.503,764.5 575.5,765C 579.105,766.27 581.271,768.77 582,772.5C 582.667,789.833 582.667,807.167 582,824.5C 580.535,827.299 578.368,829.465 575.5,831C 557.5,831.667 539.5,831.667 521.5,831C 519.671,830.727 518.171,829.893 517,828.5C 515.358,808.923 515.025,789.256 516,769.5C 517.107,766.887 518.94,765.22 521.5,764.5 Z"/></g>
<g><path style="opacity:0.944" fill="#fefffe" d="M 624.5,764.5 C 642.503,764.333 660.503,764.5 678.5,765C 682.105,766.27 684.271,768.77 685,772.5C 685.667,789.833 685.667,807.167 685,824.5C 683.535,827.299 681.368,829.465 678.5,831C 660.5,831.667 642.5,831.667 624.5,831C 622.671,830.727 621.171,829.893 620,828.5C 618.358,808.923 618.025,789.256 619,769.5C 620.107,766.887 621.94,765.22 624.5,764.5 Z"/></g>
</svg>
