<svg width="411" height="477" viewBox="0 0 411 477" fill="none" xmlns="http://www.w3.org/2000/svg">
<path d="M228.02 266.06C228.19 276.14 220.74 288.49 205.78 288.49C193.1 288.49 183.46 279.26 183.37 266.17C183.26 251.95 196.06 243.22 205.64 244.38C218.36 244.37 227.81 253.67 228.02 266.06Z" fill="#FDFDFD"/>
<path d="M228.02 266.06C228.19 276.14 220.74 288.49 205.78 288.49C193.1 288.49 183.46 279.26 183.37 266.17C183.26 251.95 196.06 243.22 205.64 244.38C218.36 244.37 227.81 253.67 228.02 266.06Z" fill="#ABB2BB"/>
<path d="M406.44 231.58C375.73 231.7 345.01 231.62 314.3 231.7C311.74 231.7 309.86 231.03 308.04 229.17C301.32 222.29 294.48 215.53 287.63 208.78C264.05 185.56 240.46 162.36 216.86 139.16C215.52 137.84 214.32 136.63 214.33 134.43C214.42 117.56 214.39 100.69 214.36 83.8199C214.35 82.2799 214.73 81.2398 216.23 80.5598C220.78 78.5198 225.29 76.3898 229.8 74.2698C249.32 65.0598 268.83 55.8499 288.34 46.6299C289.34 46.1599 290.58 45.7198 290.58 44.3998C290.59 42.9998 289.18 42.7699 288.22 42.3199C259.68 28.8599 231.12 15.4298 202.58 1.96985C197.87 -0.250152 197.21 0.119848 197.21 5.21985C197.21 47.5798 197.18 89.9398 197.27 132.31C197.28 135.19 196.39 137.18 194.37 139.15C179.18 153.99 164.07 168.9 148.98 183.84C133.99 198.69 119.02 213.58 104.14 228.55C101.94 230.75 99.6901 231.72 96.5601 231.71C66.1001 231.61 35.6301 231.7 5.16013 231.57C1.74013 231.56 0.780109 232.45 0.800109 235.92C0.920109 273.04 0.870117 310.15 0.870117 347.26C0.870117 383.75 0.890128 420.24 0.850128 456.73C0.850128 460.42 1.20012 463.93 3.12012 467.19C7.03012 473.82 13.0801 476.14 20.4401 476.14C65.6401 476.12 110.84 476.07 156.04 476.23C160.07 476.25 160.67 474.93 160.66 471.35C160.54 431.62 160.58 391.88 160.58 352.14C160.59 343.89 164.13 340.38 172.42 340.38H238.72C247.42 340.38 250.48 343.4 250.48 351.99C250.48 391.85 250.52 431.71 250.4 471.58C250.39 475.2 251.43 476.21 255.03 476.2C300.35 476.09 345.68 476.13 391 476.12C403.43 476.12 410.75 468.8 410.75 456.32C410.76 382.84 410.73 309.37 410.84 235.89C410.84 232.37 409.81 231.56 406.44 231.58ZM70.6701 385.13C70.6501 390.85 67.5601 394.21 61.7601 394.43C56.5301 394.63 51.2701 394.61 46.0401 394.43C40.5101 394.24 37.3001 390.44 37.4601 384.84C37.5601 381.1 37.4801 377.35 37.4801 373.6H37.4901C37.4901 369.98 37.4701 366.35 37.5001 362.73C37.5401 356.96 40.6101 353.57 46.3301 353.36C51.5701 353.17 56.8201 353.15 62.0501 353.38C67.5801 353.62 70.6401 357.05 70.6701 362.64C70.7101 370.14 70.7001 377.64 70.6701 385.13ZM70.6601 334.28C70.6201 339.39 67.3201 342.74 62.2501 342.81C56.7601 342.88 51.2601 342.89 45.7701 342.8C40.7301 342.72 37.6301 339.62 37.5101 334.58C37.4201 330.59 37.5001 326.59 37.5001 322.59C37.5001 318.59 37.4301 314.59 37.5101 310.59C37.6201 305.49 40.9001 302.27 46.0701 302.21C51.4401 302.15 56.8101 302.15 62.1701 302.22C67.3001 302.28 70.6201 305.57 70.6601 310.66C70.7301 318.53 70.7201 326.41 70.6601 334.28ZM123.15 385.57C123.07 390.68 119.97 394.2 114.96 394.4C109.36 394.63 103.74 394.6 98.1401 394.41C93.7501 394.26 90.5301 391.34 90.0101 387.07C88.9601 378.52 88.9901 369.91 89.9501 361.36C90.5301 356.2 93.5101 353.57 98.6401 353.37C103.86 353.16 109.11 353.17 114.34 353.36C120.04 353.57 123.09 356.95 123.15 362.74C123.19 366.49 123.16 370.23 123.16 373.97C123.16 377.84 123.21 381.71 123.15 385.57ZM123.13 334.55C123 339.43 119.71 342.73 114.85 342.8C109.24 342.89 103.63 342.89 98.0201 342.8C93.8401 342.73 90.6801 340.41 90.1101 336.27C88.8801 327.11 88.8801 317.88 90.1201 308.72C90.6501 304.8 94.1401 302.27 98.1401 302.22C103.75 302.14 109.36 302.13 114.97 302.22C119.62 302.3 122.89 305.59 123.14 310.22C123.15 310.47 123.16 310.72 123.16 310.97C123.16 314.84 123.16 318.71 123.15 322.57C123.15 326.56 123.23 330.56 123.13 334.55ZM205.56 310.56C181.69 311.12 160.49 291.24 160.71 266.07C160.94 239.73 183.04 221.56 205.99 221.88C230.77 222.24 250.5 241.7 250.48 266.29C250.45 291.08 230.67 310.58 205.56 310.56ZM321.64 385.11C321.53 390.87 318.37 394.24 312.63 394.44C307.52 394.62 302.4 394.57 297.28 394.45C291.96 394.33 288.24 390.99 288.04 385.6C287.75 377.86 287.76 370.1 288.02 362.37C288.19 356.85 291.91 353.5 297.55 353.34C302.54 353.2 307.54 353.2 312.52 353.34C318.07 353.5 321.53 357.08 321.64 362.63C321.71 366.38 321.65 370.12 321.65 373.87C321.65 377.62 321.71 381.37 321.64 385.11ZM321.64 322.65C321.63 326.52 321.71 330.4 321.62 334.27C321.49 339.57 318.19 342.76 312.82 342.82C307.58 342.87 302.34 342.86 297.09 342.82C291.6 342.78 288.17 339.7 288.01 334.1C287.79 326.61 287.78 319.1 288 311.61C288.18 305.17 291.55 302.21 298.04 302.2C302.91 302.19 307.78 302.15 312.65 302.21C318.25 302.29 321.47 305.43 321.62 311.03C321.73 314.9 321.64 318.77 321.64 322.65ZM374.08 384.86C374.05 390.68 371.1 394.14 365.41 394.41C360.06 394.66 354.69 394.62 349.33 394.43C343.9 394.24 340.44 390.46 340.4 384.94C340.34 377.7 340.36 370.46 340.39 363.23C340.42 357.34 343.89 353.58 349.77 353.36C354.75 353.17 359.74 353.16 364.72 353.36C370.76 353.61 374.04 357.19 374.08 363.16C374.1 366.77 374.08 370.39 374.08 374.01C374.08 377.63 374.1 381.25 374.08 384.86ZM374.07 334.07C374 339.44 370.78 342.74 365.49 342.81C360 342.88 354.52 342.88 349.03 342.81C344.04 342.75 340.5 339.39 340.42 334.4C340.29 326.54 340.31 318.68 340.41 310.82C340.47 305.86 343.97 302.33 348.9 302.23C354.51 302.11 360.13 302.09 365.73 302.23C370.8 302.36 373.96 305.76 374.08 310.86V322.46C374.08 326.33 374.12 330.2 374.07 334.07Z" fill="white"/>
<path d="M228.02 266.06C228.19 276.14 220.74 288.49 205.78 288.49C193.1 288.49 183.46 279.26 183.37 266.17C183.26 251.95 196.06 243.22 205.64 244.38C218.36 244.37 227.81 253.67 228.02 266.06Z" fill="#FEFEFE"/>
<path d="M228.08 472.24C228.11 475.4 227.16 476.24 224.08 476.2C211.85 476.03 199.61 476 187.39 476.21C183.81 476.27 183 475.05 183.01 471.69C183.12 440.84 183.07 409.99 183.09 379.14C183.09 371.73 185.26 369.63 192.7 369.63C201.56 369.62 210.42 369.62 219.28 369.63C226.17 369.64 228 371.42 228 378.19C228.02 393.68 228.01 409.17 228.01 424.66C228.01 440.52 227.93 456.38 228.08 472.24Z" fill="white"/>
<path d="M130.72 163.15C130.61 164.39 129.51 164.93 128.76 165.68C116.65 177.77 104.49 189.8 92.4299 201.92C89.9199 204.44 87.3199 205.68 83.5799 205.66C57.3699 205.48 31.1599 205.5 4.94991 205.64C1.64991 205.66 0.669902 204.81 0.789902 201.48C1.0599 194.25 0.799907 186.99 0.919907 179.75C1.06991 170.33 8.44989 162.75 17.8099 162.73C54.8799 162.64 91.9399 162.69 129.01 162.7C129.58 162.7 130.25 162.47 130.72 163.15Z" fill="white"/>
<path d="M410.8 202.34C410.84 204.69 410.26 205.62 407.7 205.61C380.23 205.53 352.76 205.56 325.29 205.58C323.7 205.59 322.45 205.22 321.28 204.05C307.84 190.64 294.36 177.28 280.9 163.89C280.77 163.76 280.84 163.44 280.8 163.13C282.03 162.28 283.43 162.71 284.73 162.71C320.32 162.68 355.91 162.68 391.49 162.69C403.38 162.69 410.7 169.92 410.75 181.72C410.78 188.59 410.67 195.47 410.8 202.34Z" fill="white"/>
<path d="M228.02 266.06C228.19 276.14 220.74 288.49 205.78 288.49C193.1 288.49 183.46 279.26 183.37 266.17C183.26 251.95 196.06 243.22 205.64 244.38C218.36 244.37 227.81 253.67 228.02 266.06Z" fill="#ABB2BB"/>
<path d="M228.02 266.06C228.19 276.14 220.74 288.49 205.78 288.49C193.1 288.49 183.46 279.26 183.37 266.17C183.26 251.95 196.06 243.22 205.64 244.38C218.36 244.37 227.81 253.67 228.02 266.06Z" fill="#FEFEFE"/>
</svg>
