<svg width="549" height="379" viewBox="0 0 549 379" fill="none" xmlns="http://www.w3.org/2000/svg">
<path d="M548.74 97.8401C548.74 103.42 546.34 106.42 540.12 108.51C489.89 125.32 439.64 142.12 389.4 158.95C354.78 170.54 320.16 182.16 285.57 193.83C281.79 195.1 278.2 195.48 274.31 194.17C228.94 178.91 183.55 163.73 138.16 148.52C137.59 148.33 137.03 148.1 135.33 147.47C147.81 142.45 159.39 137.89 170.89 133.15C206.74 118.38 242.67 103.82 279.53 91.7101C284.73 90.0001 289.38 88.0401 291.11 82.3001C292.51 77.6501 291.85 73.3401 288.43 69.7901C285.03 66.2701 280.95 64.4101 275.94 65.8401C261.17 70.0701 246.87 75.6101 232.49 80.9401C202.68 92.0001 173.26 104.06 143.86 116.18C131.65 121.21 119.5 126.38 108.47 133.87C94.6202 143.28 86.7302 156.58 82.6902 172.45C80.2902 181.87 79.0002 191.49 78.1002 201.17C77.9002 203.37 78.5902 204.78 80.4602 206.17C94.5502 216.66 95.2202 236.51 81.9002 247.95C80.3702 249.26 79.9202 250.33 80.2402 252.34C83.5002 272.81 85.2102 293.41 84.7802 314.13C84.3502 334.51 78.2602 352.86 63.6502 367.73C60.5802 370.86 56.9502 373.31 53.1902 375.54C47.2802 379.03 41.3002 379.94 34.6702 377.12C23.6202 372.42 12.9302 367.13 2.98024 360.37C0.310237 358.55 -0.419767 356.91 2.07023 354.13C7.98023 347.53 14.4402 341.48 19.9802 334.52C35.1202 315.51 44.7702 294.03 49.6602 270.32C50.6702 265.45 51.4402 260.53 52.2002 255.62C52.5502 253.33 51.8102 252.62 50.1402 251.61C40.6302 245.82 35.6302 237.44 36.2102 226.15C36.6802 216.91 40.9302 209.65 48.7202 204.78C51.5602 203 52.4002 200.8 52.6502 197.8C54.0102 181.48 56.9102 165.48 63.1402 150.23C66.4102 142.22 70.9102 134.92 76.5102 127.82C64.0302 123.65 51.9102 119.59 39.8002 115.54C32.4702 113.08 25.1302 110.67 17.8102 108.17C12.5702 106.37 9.88022 102.71 9.93022 97.6401C9.98022 92.8101 12.7102 89.1801 17.8102 87.4701C51.2802 76.2801 84.7702 65.1401 118.23 53.9401C164.32 38.5101 210.4 23.0501 256.47 7.59008C262.38 5.61008 268.27 3.59009 274.17 1.57009C277.59 0.39009 280.98 0.360093 284.43 1.51009C369.68 30.0301 454.94 58.5201 540.19 87.0401C546.26 89.0701 548.75 92.3301 548.74 97.8401Z" fill="white"/>
<path d="M437.491 272.14C421.241 286.59 401.481 294.21 381.061 300.25C360.131 306.45 338.661 309.83 316.921 311.87C297.611 313.69 278.271 313.89 258.991 313.04C226.931 311.63 195.331 306.88 164.941 296.02C149.481 290.5 134.731 283.57 122.181 272.68C121.611 272.19 121.031 271.72 120.481 271.21C116.391 267.37 116.271 267.27 119.801 262.84C134.541 244.31 128.581 214.51 111.181 202.86C108.661 201.18 107.971 199.26 107.991 196.38C108.041 188.86 108.741 181.46 110.671 174.19C111.871 169.65 112.081 169.59 116.541 171.08C166.551 187.82 216.581 204.51 266.561 221.35C275.171 224.25 283.471 224.27 292.111 221.37C343.871 203.98 395.681 186.75 447.481 169.47C452.051 167.94 452.051 167.95 452.051 172.65V208.61C452.051 219.47 451.751 230.34 452.131 241.19C452.591 254.17 446.711 263.95 437.491 272.14Z" fill="white"/>
</svg>
