<svg width="419" height="420" viewBox="0 0 419 420" fill="none" xmlns="http://www.w3.org/2000/svg">
<path d="M360.97 165.05C286.92 239.05 212.93 313.1 139 387.21C135.71 390.5 131.8 391.94 127.52 392.98C101.02 399.38 74.53 405.81 48.03 412.21C38.6 414.5 29.15 416.75 19.7 418.98C18.38 419.3 17.02 419.45 16.67 419.5C5.98003 419.44 -1.01998 410.63 1.25002 401.13C8.56002 370.57 15.96 340.04 23.32 309.49C24.75 303.55 26.31 297.65 27.56 291.67C28.47 287.34 30.52 283.91 33.65 280.79C79.53 234.98 125.34 189.1 171.16 143.24C199.15 115.22 227.16 87.2299 255.08 59.1499C257.18 57.0399 258.25 56.6999 260.56 59.0199C293.94 92.5899 327.42 126.07 360.96 159.49C363.16 161.68 363.19 162.83 360.97 165.05Z" fill="white"/>
<path d="M418.83 91.21C418.84 101.31 415.1 110.04 408.38 117.32C401.62 124.66 394.26 131.45 387.35 138.66C385.28 140.82 384.18 140.35 382.32 138.48C358.99 115.02 335.6 91.62 312.18 68.25C301.94 58.02 291.63 47.86 281.25 37.76C279.4 35.97 279.23 34.86 281.2 33.03C289.97 24.88 297.34 15.14 307.15 8.23C318.83 0.00999498 331.6 -1.98 344.85 4.98C347.76 6.51 350.14 8.76999 352.42 11.04C371.17 29.72 389.88 48.44 408.55 67.2C416.15 74.84 418.8 81.24 418.83 91.21Z" fill="white"/>
</svg>
