<svg width="408" height="470" viewBox="0 0 408 470" fill="none" xmlns="http://www.w3.org/2000/svg">
<path d="M389.91 469.64C327.97 469.34 266.04 469.49 204.11 469.49C142.05 469.49 79.9996 469.34 17.9396 469.64C7.97958 469.68 0.549567 462.26 0.709567 452.47C1.31957 413.74 11.6896 378.05 32.3596 345.28C40.3896 332.56 49.6296 320.78 60.2996 310.29C89.8596 281.25 124.91 262.28 165.76 254.4C179.12 251.82 192.64 250.52 206.23 250.76C241.53 251.39 274.61 260.24 305.3 277.92C320.75 286.82 334.95 297.41 347.38 310.07C377.44 340.67 396.96 376.89 404.15 419.46C405.98 430.3 406.63 441.19 407.2 452.15C407.74 462.62 399.64 469.68 389.91 469.64Z" fill="white"/>
<path d="M313.35 112.21C312.31 172 262.4 220.04 203.97 219.26C145.66 220.22 93.6896 171.28 94.5496 108.51C95.3596 49.7898 142.66 0.469773 204.32 0.579773C265.12 0.699773 314.42 50.2398 313.35 112.21Z" fill="white"/>
</svg>
